# xmcd CD database file
#
# Track frame offsets:
#	150
#	9815
#	25926
#	45040
#	58516
#	75931
#	92503
#	101843
#	109161
#	121149
#	132739
#	149296
#
# Disc length: 3264 seconds
#
# Revision: 0
# Processed by: cddbd v1.5.2PL0 Copyright (c) Steve Scherf et al.
# Submitted via: CDex 1.84
#
DISCID=8a0cbe0c
DTITLE=Dominic Miller - Third World
DYEAR=2004
DGENRE=Jazz
TTITLE0=Always
TTITLE1=Baden
TTITLE2=Forgotten Dream
TTITLE3=Partido Alto
TTITLE4=Baby Steps
TTITLE5=Denver Sun
TTITLE6=Salvador
TTITLE7=Seven Sisters
TTITLE8=Letter Unsent
TTITLE9=March Day
TTITLE10=Devil's Punch Bowl
TTITLE11=Altea
EXTD=YEAR: 2004
EXTT0=
EXTT1=
EXTT2=
EXTT3=
EXTT4=
EXTT5=
EXTT6=
EXTT7=
EXTT8=
EXTT9=
EXTT10=
EXTT11=
PLAYORDER=
